<svg xmlns="http://www.w3.org/2000/svg" width="64" height="64" fill="none">
  <path fill="#0610FF" d="M49.113 0H15.339c-4.638 0-6.027 3.49-6.027 5.729V60c0 2.674 1.345 3.463 2.083 3.77.736.307 2.687.526 4.073-.877L31.77 43.655c.261-.306.392-.342.565-.342H42.48c4.336 0 5.158-2.987 5.636-4.83.39-1.535 4.855-23.406 6.244-30.334C55.399 2.801 54.054 0 49.113 0Zm-1.995 9.3-1.517 7.59c-.173.79-.91 1.673-1.822 1.673H30.6c-1.474 0-2.724.753-2.724 2.245v1.623c0 1.49 1.25 2.32 2.725 2.32h11.142c1.04 0 1.908 1.208 1.692 2.303-.217 1.14-1.389 6.932-1.517 7.546-.09.657-.781 1.494-1.823 1.494H30.99c-1.907 0-2.298.183-3.424 1.585-1.128 1.404-10.981 14.075-10.981 14.075-.087.132-.054.136-.054.004V8.84c0-1.009.585-1.621 1.582-1.621H45.47c.954 0 1.908.855 1.648 2.082Z"/>
  <path fill="#0610FF" d="M35.72 7.219 42.779 0h-6.703l-7.06 7.219h6.704ZM30.44 36.101c-1.44.054-1.868.323-2.874 1.578-.519.645-2.913 3.764-5.345 6.84l8.22-8.418ZM16.531 8.84c0-1.009.585-1.621 1.582-1.621h5.596L30.768 0h-6.703L9.312 14.691v6.703l7.22-6.98V8.84ZM45.47 7.219c.554 0 1.077.365 1.406.744l6.564-6.588C52.537.47 51.108 0 49.113 0h-1.027l-7.058 7.219h4.442ZM30.6 18.563l-2.488 1.289c-.237.193-.237.662-.237.956v1.623c0 1.185.87 2.158 2.358 2.302l6.407-6.17H30.6ZM45.601 16.835c-.173.79-.91 1.728-1.822 1.728h-1.834L34.89 24.75h6.704l11.752-11.554c.436-2.15.75-3.734 1.015-5.047.197-1.021.308-2.012.324-2.848l-8.526 8.67-.557 2.864ZM16.531 43.743l-7.218 6.982v6.702l7.218-6.98v-6.704ZM48.115 38.482c.082-.318.34-1.541.708-3.303l-8.15 8.134h1.806c4.336 0 5.159-2.987 5.636-4.83ZM18.757 0h-3.418c-4.638 0-6.027 3.49-6.027 5.729v3.655L18.758 0ZM16.531 19.722l-7.218 6.98v6.704l7.218-6.981v-6.703ZM16.531 31.733l-7.218 6.98v6.703l7.218-6.98v-6.703ZM51.933 20.113l-8.873 8.854a1230.16 1230.16 0 0 1-1.143 5.633c-.09.657-.781 1.494-1.823 1.494h-4.33L9.741 62.21a3.26 3.26 0 0 0 1.654 1.559c.736.307 2.767.538 4.073-.9L31.77 43.644c.261-.308.392-.331.565-.331h3.031l14.843-14.806c.547-2.667 1.146-5.556 1.724-8.394Z"/>
</svg>
