<svg width="256" height="97" viewBox="0 0 256 97" fill="none" xmlns="http://www.w3.org/2000/svg">
<path d="M156 54.0613H0V96.0613H156V54.0613Z" fill="black"/>
<path d="M5.68896 44.4299V0.599201H31.9702V5.3076H10.9966V20.1176H30.0013V24.8259H10.9966V44.4299H5.68896ZM37.3848 44.4299H31.8204L47.9145 0.599201H53.393L69.487 44.4299H63.923L50.825 7.5334H50.483L37.3848 44.4299ZM39.4394 27.3085H61.868V32.0169H39.4394V27.3085ZM100.284 11.5569C100.028 9.3882 98.986 7.7046 97.16 6.5061C95.333 5.3076 93.093 4.7084 90.44 4.7084C88.499 4.7084 86.801 5.0223 85.346 5.65C83.905 6.2778 82.778 7.141 81.965 8.2396C81.166 9.3383 80.766 10.5867 80.766 11.9849C80.766 13.1549 81.044 14.1608 81.601 15.0026C82.171 15.8301 82.899 16.5221 83.784 17.0785C84.668 17.6207 85.596 18.0701 86.566 18.4268C87.536 18.7693 88.428 19.0475 89.241 19.2615L93.693 20.46C94.834 20.7596 96.104 21.1734 97.502 21.7013C98.915 22.2292 100.263 22.9497 101.547 23.8629C102.845 24.7617 103.915 25.9174 104.757 27.3299C105.599 28.7424 106.02 30.476 106.02 32.5305C106.02 34.899 105.399 37.0392 104.158 38.951C102.931 40.8629 101.133 42.3824 98.765 43.5096C96.411 44.6367 93.55 45.2003 90.183 45.2003C87.044 45.2003 84.326 44.6938 82.029 43.6808C79.746 42.6678 77.948 41.2553 76.635 39.4433C75.337 37.6313 74.602 35.5268 74.431 33.1298H79.91C80.053 34.7848 80.609 36.1545 81.579 37.2389C82.564 38.309 83.805 39.108 85.303 39.6359C86.816 40.1495 88.442 40.4063 90.183 40.4063C92.209 40.4063 94.028 40.0782 95.64 39.4219C97.252 38.7513 98.529 37.8239 99.471 36.6397C100.413 35.4412 100.884 34.0429 100.884 32.4449C100.884 30.9896 100.477 29.8054 99.664 28.8922C98.85 27.9791 97.78 27.2372 96.453 26.6665C95.127 26.0958 93.693 25.5964 92.152 25.1684L86.758 23.6274C83.334 22.643 80.623 21.2376 78.626 19.4113C76.628 17.585 75.63 15.1952 75.63 12.2417C75.63 9.7877 76.293 7.6475 77.62 5.8212C78.961 3.9807 80.759 2.5539 83.013 1.5409C85.282 0.513599 87.814 0 90.611 0C93.436 0 95.947 0.506499 98.144 1.5195C100.341 2.5183 102.082 3.888 103.366 5.6286C104.665 7.3693 105.349 9.3454 105.421 11.5569H100.284ZM114.747 44.4299V0.599201H120.054V20.1176H143.425V0.599201H148.732V44.4299H143.425V24.8259H120.054V44.4299H114.747ZM164.666 0.599201V44.4299H159.358V0.599201H164.666ZM212.29 22.5146C212.29 27.1373 211.455 31.1323 209.786 34.4995C208.117 37.8667 205.827 40.4634 202.916 42.2897C200.005 44.116 196.681 45.0291 192.943 45.0291C189.205 45.0291 185.88 44.116 182.97 42.2897C180.059 40.4634 177.769 37.8667 176.1 34.4995C174.43 31.1323 173.596 27.1373 173.596 22.5146C173.596 17.8918 174.43 13.8968 176.1 10.5296C177.769 7.1624 180.059 4.5657 182.97 2.7394C185.88 0.913101 189.205 0 192.943 0C196.681 0 200.005 0.913101 202.916 2.7394C205.827 4.5657 208.117 7.1624 209.786 10.5296C211.455 13.8968 212.29 17.8918 212.29 22.5146ZM207.154 22.5146C207.154 18.7193 206.519 15.5162 205.249 12.9052C203.993 10.2942 202.288 8.3181 200.134 6.9769C197.994 5.6358 195.597 4.9652 192.943 4.9652C190.289 4.9652 187.885 5.6358 185.731 6.9769C183.59 8.3181 181.885 10.2942 180.616 12.9052C179.36 15.5162 178.732 18.7193 178.732 22.5146C178.732 26.3098 179.36 29.5129 180.616 32.1239C181.885 34.7349 183.59 36.711 185.731 38.0522C187.885 39.3933 190.289 40.0639 192.943 40.0639C195.597 40.0639 197.994 39.3933 200.134 38.0522C202.288 36.711 203.993 34.7349 205.249 32.1239C206.519 29.5129 207.154 26.3098 207.154 22.5146ZM255.971 0.599201V44.4299H250.834L226.95 10.016H226.522V44.4299H221.214V0.599201H226.351L250.321 35.0987H250.749V0.599201H255.971Z" fill="black"/>
<path d="M19.8696 67.2497C19.7276 66.0504 19.1516 65.1193 18.1416 64.4565C17.1317 63.7938 15.8929 63.4624 14.4253 63.4624C13.3523 63.4624 12.4133 63.636 11.6085 63.9831C10.8116 64.3303 10.1883 64.8077 9.73861 65.4152C9.29671 66.0228 9.07581 66.7132 9.07581 67.4864C9.07581 68.1334 9.22961 68.6897 9.53741 69.1553C9.85301 69.6133 10.2554 69.9953 10.7446 70.3033C11.2337 70.6033 11.7466 70.8513 12.2831 71.0493C12.8197 71.2383 13.3128 71.3923 13.7626 71.5103L16.2243 72.1733C16.8555 72.3393 17.5578 72.5673 18.331 72.8593C19.1121 73.1513 19.8578 73.5503 20.5679 74.0553C21.2859 74.5523 21.8777 75.1913 22.3432 75.9723C22.8087 76.7533 23.0415 77.7123 23.0415 78.8483C23.0415 80.1583 22.6982 81.3413 22.0118 82.3993C21.3332 83.4563 20.3391 84.2963 19.0293 84.9203C17.7274 85.5433 16.1454 85.8553 14.2833 85.8553C12.5475 85.8553 11.0444 85.5743 9.77411 85.0143C8.51161 84.4543 7.51751 83.6733 6.79161 82.6713C6.07351 81.6693 5.66721 80.5053 5.57251 79.1793H8.60241C8.68131 80.0953 8.98901 80.8523 9.52551 81.4523C10.0699 82.0443 10.7564 82.4853 11.5849 82.7773C12.4212 83.0613 13.3207 83.2033 14.2833 83.2033C15.4037 83.2033 16.4097 83.0223 17.3013 82.6593C18.1929 82.2883 18.8991 81.7753 19.4199 81.1203C19.9406 80.4583 20.201 79.6843 20.201 78.8013C20.201 77.9963 19.9761 77.3413 19.5264 76.8363C19.0766 76.3313 18.4849 75.9213 17.7511 75.6053C17.0173 75.2903 16.2243 75.0133 15.3722 74.7773L12.3897 73.9253C10.496 73.3803 8.99691 72.6033 7.89221 71.5933C6.78761 70.5833 6.23531 69.2613 6.23531 67.6284C6.23531 66.2713 6.60221 65.0878 7.33601 64.0778C8.07771 63.06 9.07181 62.271 10.3185 61.7108C11.573 61.1427 12.9735 60.8586 14.52 60.8586C16.0823 60.8586 17.471 61.1387 18.6861 61.6989C19.9012 62.2512 20.8638 63.0087 21.5739 63.9713C22.2919 64.9339 22.6706 66.0267 22.7101 67.2497H19.8696ZM35.9154 63.7938V61.19H54.0941V63.7938H46.4725V85.4283H43.5373V63.7938H35.9154ZM88.4491 73.3093C88.4491 75.8663 87.9881 78.0753 87.0651 79.9373C86.1411 81.7993 84.8751 83.2353 83.2651 84.2453C81.6561 85.2553 79.8171 85.7603 77.7501 85.7603C75.6831 85.7603 73.8451 85.2553 72.2351 84.2453C70.6251 83.2353 69.3591 81.7993 68.4361 79.9373C67.5131 78.0753 67.0511 75.8663 67.0511 73.3093C67.0511 70.7533 67.5131 68.5437 68.4361 66.6816C69.3591 64.8195 70.6251 63.3835 72.2351 62.3735C73.8451 61.3636 75.6831 60.8586 77.7501 60.8586C79.8171 60.8586 81.6561 61.3636 83.2651 62.3735C84.8751 63.3835 86.1411 64.8195 87.0651 66.6816C87.9881 68.5437 88.4491 70.7533 88.4491 73.3093ZM85.6091 73.3093C85.6091 71.2103 85.2581 69.4393 84.5561 67.9953C83.8611 66.5514 82.9181 65.4586 81.7271 64.7169C80.5431 63.9752 79.2181 63.6044 77.7501 63.6044C76.2831 63.6044 74.9531 63.9752 73.7621 64.7169C72.5781 65.4586 71.6351 66.5514 70.9331 67.9953C70.2391 69.4393 69.8921 71.2103 69.8921 73.3093C69.8921 75.4083 70.2391 77.1793 70.9331 78.6233C71.6351 80.0673 72.5781 81.1603 73.7621 81.9023C74.9531 82.6433 76.2831 83.0143 77.7501 83.0143C79.2181 83.0143 80.5431 82.6433 81.7271 81.9023C82.9181 81.1603 83.8611 80.0673 84.5561 78.6233C85.2581 77.1793 85.6091 75.4083 85.6091 73.3093ZM102.758 85.4283V61.19H110.948C112.842 61.19 114.396 61.5135 115.611 62.1605C116.827 62.7996 117.726 63.6794 118.31 64.7998C118.894 65.9202 119.186 67.1945 119.186 68.6226C119.186 70.0503 118.894 71.3173 118.31 72.4213C117.726 73.5263 116.83 74.3943 115.623 75.0253C114.416 75.6493 112.874 75.9603 110.996 75.9603H104.368V73.3093H110.901C112.195 73.3093 113.236 73.1203 114.025 72.7413C114.822 72.3623 115.398 71.8263 115.753 71.1313C116.116 70.4293 116.298 69.5933 116.298 68.6226C116.298 67.6521 116.116 66.8039 115.753 66.078C115.391 65.3521 114.811 64.7919 114.014 64.3974C113.217 63.995 112.163 63.7938 110.854 63.7938H105.693V85.4283H102.758ZM114.168 74.5403L120.133 85.4283H116.724L110.854 74.5403H114.168ZM133.45 85.4283V61.19H148.079V63.7938H136.385V71.9843H147.321V74.5873H136.385V82.8253H148.268V85.4283H133.45Z" fill="white"/>
<path d="M201.239 18.5383C193.026 18.5383 193.069 31.3062 201.308 31.3062C209.521 31.3062 209.478 18.5383 201.239 18.5383Z" fill="black"/>
</svg>
